<?xml version="1.0" encoding="UTF-8"?>
<svg id="Ebene_1" data-name="Ebene 1" xmlns="http://www.w3.org/2000/svg" viewBox="0 0 4206.05 852.24">
  <g>
    <path d="M180.75,507.18L41.25,157.18h81l80,222.5c5.33,14.67,9.5,29.34,12.5,44,1.66-7.33,3.5-14.75,5.5-22.25s4.33-14.75,7-21.75l80-222.5h79.5l-138.5,350h-67.5Z"/>
    <path d="M478.25,513.68c-23.67,0-45.25-6.09-64.75-18.25-19.5-12.16-35-28.5-46.5-49s-17.25-43.25-17.25-68.25c0-18.66,3.33-36.25,10-52.75,6.66-16.5,15.83-31,27.5-43.5,11.66-12.5,25.25-22.33,40.75-29.5,15.5-7.16,32.25-10.75,50.25-10.75,22.66,0,40.33,4.25,53,12.75,12.66,8.5,22.5,19.75,29.5,33.75v-41h67v260h-65.5v-42.5c-7,14.67-16.92,26.5-29.75,35.5-12.84,9-30.92,13.5-54.25,13.5ZM489.25,452.68c15,0,27.91-3.41,38.75-10.25,10.83-6.83,19.25-15.91,25.25-27.25,6-11.33,9-23.66,9-37s-3-26.16-9-37.5c-6-11.33-14.42-20.5-25.25-27.5-10.84-7-23.75-10.5-38.75-10.5s-26.92,3.42-37.75,10.25c-10.84,6.84-19.25,15.92-25.25,27.25-6,11.34-9,23.84-9,37.5s3,25.25,9,36.75,14.41,20.75,25.25,27.75c10.83,7,23.41,10.5,37.75,10.5Z"/>
    <path d="M667.75,507.18V142.18h67.5v365h-67.5Z"/>
    <path d="M899.74,513.68c-26.67,0-50.17-6.17-70.5-18.5-20.34-12.33-36.09-28.75-47.25-49.25-11.17-20.5-16.75-43.25-16.75-68.25s5.83-47.91,17.5-68.75c11.66-20.83,27.58-37.41,47.75-49.75,20.16-12.33,43.25-18.5,69.25-18.5s48.91,6.17,68.75,18.5c19.83,12.34,35.33,28.92,46.5,49.75,11.16,20.84,16.75,43.75,16.75,68.75,0,3.67-.17,7.5-.5,11.5-.34,4-.84,8.17-1.5,12.5h-194.5c3.66,15.34,11.08,27.84,22.25,37.5,11.16,9.67,25.25,14.5,42.25,14.5,14.66,0,27.41-3.33,38.25-10,10.83-6.66,19.25-15,25.25-25l52.5,39.5c-10.34,16.34-25.84,29.67-46.5,40-20.67,10.33-43.84,15.5-69.5,15.5ZM898.74,298.68c-16,0-29.67,4.84-41,14.5-11.34,9.67-18.84,22.34-22.5,38h128.5c-3.67-14.33-11.25-26.66-22.75-37-11.5-10.33-25.59-15.5-42.25-15.5Z"/>
    <path d="M1061.24,507.18V247.18h66.5v38c13.66-29.33,40.16-44,79.5-44,18.66,0,35.5,4.34,50.5,13,15,8.67,26.83,21,35.5,37,8.66,16,13,35,13,57v159h-67.5v-142.5c0-22.66-5.17-39.08-15.5-49.25-10.34-10.16-23.84-15.25-40.5-15.25-14.34,0-26.92,5.09-37.75,15.25-10.84,10.17-16.25,26.59-16.25,49.25v142.5h-67.5Z"/>
    <path d="M1437.74,507.18c-25.67,0-45.34-6.33-59-19-13.67-12.66-20.5-33.16-20.5-61.5v-122h-36.5v-57.5h36.5v-52.5l67.5-7v59.5h55v57.5h-55v118.5c0,16,7,24,21,24h28v60h-37Z"/>
    <path d="M1536.73,225.68c-11.34,0-20.92-3.91-28.75-11.75-7.84-7.83-11.75-17.25-11.75-28.25s3.91-19.91,11.75-27.75,17.41-11.75,28.75-11.75,21.33,3.92,29,11.75c7.66,7.84,11.5,17.09,11.5,27.75,0,11.34-3.84,20.84-11.5,28.5s-17.34,11.5-29,11.5ZM1503.23,507.18V247.18h67.5v260h-67.5Z"/>
    <path d="M1610.73,507.18V247.18h66.5v38c13.66-29.33,40.16-44,79.5-44,18.66,0,35.5,4.34,50.5,13,15,8.67,26.83,21,35.5,37,8.66,16,13,35,13,57v159h-67.5v-142.5c0-22.66-5.17-39.08-15.5-49.25-10.34-10.16-23.84-15.25-40.5-15.25-14.34,0-26.92,5.09-37.75,15.25-10.84,10.17-16.25,26.59-16.25,49.25v142.5h-67.5Z"/>
    <path d="M2102.72,512.68c-26,0-48.59-4.42-67.75-13.25-19.17-8.83-34-21.33-44.5-37.5-10.5-16.16-15.75-35.08-15.75-56.75,0-16.66,3.5-32.25,10.5-46.75s17.66-27.33,32-38.5c14.33-11.16,32-20.08,53-26.75l28-9,32,46-24.5,8c-19.67,6-34.25,14.42-43.75,25.25-9.5,10.84-14.25,23.09-14.25,36.75,0,9.34,2.33,17.92,7,25.75,4.66,7.84,11.5,14.09,20.5,18.75,9,4.67,19.5,7,31.5,7,18,0,34-4,48-12s27.5-20.33,40.5-37c5.66-7.66,11.16-16.25,16.5-25.75,5.33-9.5,10.66-20.25,16-32.25l9-19.5h76l-16,32.5c-8,17.34-16.17,33.34-24.5,48-8.34,14.67-17.34,27.67-27,39-19,23.34-40.09,40.5-63.25,51.5-23.17,11-49.59,16.5-79.25,16.5ZM2252.22,507.18l-190-187.5c-15.34-15.33-26.17-29.25-32.5-41.75-6.34-12.5-9.5-25.58-9.5-39.25,0-16.33,4.25-31.08,12.75-44.25,8.5-13.16,20.58-23.66,36.25-31.5,15.66-7.83,35-11.75,58-11.75s41.66,4.09,57,12.25c15.33,8.17,26.83,19.09,34.5,32.75,7.66,13.67,11.5,28.5,11.5,44.5h-71.5c.33-10.66-2.67-18.75-9-24.25-6.34-5.5-14-8.25-23-8.25-10.34,0-18.75,2.75-25.25,8.25s-9.75,12.75-9.75,21.75c0,7.34,2.41,15.17,7.25,23.5,4.83,8.34,12.08,17.5,21.75,27.5l219.5,218h-88Z"/>
    <path d="M2456.22,507.18V157.18h205v63h-135v78.5h132.5v61h-132.5v84.5h136v63h-206Z"/>
    <path d="M2701.71,507.18V247.18h66.5v38c13.66-29.33,40.16-44,79.5-44,18.66,0,35.5,4.34,50.5,13,15,8.67,26.83,21,35.5,37,8.66,16,13,35,13,57v159h-67.5v-142.5c0-22.66-5.17-39.08-15.5-49.25-10.34-10.16-23.84-15.25-40.5-15.25-14.34,0-26.92,5.09-37.75,15.25-10.84,10.17-16.25,26.59-16.25,49.25v142.5h-67.5Z"/>
    <path d="M2984.2,507.18V142.18h67.5v210l97.5-105h96l-122.5,121,123,139h-89.5l-104.5-123.5v123.5h-67.5Z"/>
    <path d="M3355.21,513.68c-26.67,0-50.17-6.17-70.5-18.5-20.34-12.33-36.09-28.75-47.25-49.25-11.17-20.5-16.75-43.25-16.75-68.25s5.83-47.91,17.5-68.75c11.66-20.83,27.58-37.41,47.75-49.75,20.16-12.33,43.25-18.5,69.25-18.5s48.91,6.17,68.75,18.5c19.83,12.34,35.33,28.92,46.5,49.75,11.16,20.84,16.75,43.75,16.75,68.75,0,3.67-.17,7.5-.5,11.5-.34,4-.84,8.17-1.5,12.5h-194.5c3.66,15.34,11.08,27.84,22.25,37.5,11.16,9.67,25.25,14.5,42.25,14.5,14.66,0,27.41-3.33,38.25-10,10.83-6.66,19.25-15,25.25-25l52.5,39.5c-10.34,16.34-25.84,29.67-46.5,40-20.67,10.33-43.84,15.5-69.5,15.5ZM3354.21,298.68c-16,0-29.67,4.84-41,14.5-11.34,9.67-18.84,22.34-22.5,38h128.5c-3.67-14.33-11.25-26.66-22.75-37-11.5-10.33-25.59-15.5-42.25-15.5Z"/>
    <path d="M3516.71,507.18V142.18h67.5v365h-67.5Z"/>
  </g>
  <g>
    <path d="M1539.82,756.94v-166.05h-52.93v-9.53h117.39v9.53h-53.18v166.05h-11.29Z"/>
    <path d="M1650.94,759.95c-11.71,0-21.87-2.8-30.48-8.4-8.62-5.6-15.22-13.42-19.82-23.45-4.6-10.03-6.9-21.65-6.9-34.87,0-13.88,2.42-25.71,7.27-35.49,4.85-9.78,11.7-17.26,20.57-22.45,8.86-5.18,18.9-7.78,30.1-7.78,12.2,0,22.41,2.76,30.6,8.28,8.19,5.52,14.34,12.67,18.44,21.45,4.1,8.78,6.15,18.52,6.15,29.22v4.39c0,1.42-.09,3.14-.25,5.14h-105.1v-9.78h94.82c-.34-15.89-4.68-27.97-13.04-36.25-8.36-8.28-19.06-12.42-32.11-12.42-8.03,0-15.55,1.84-22.57,5.52-7.02,3.68-12.75,9.32-17.18,16.93-4.43,7.61-6.65,17.35-6.65,29.22v4.77c0,12.54,2.17,22.99,6.52,31.35,4.35,8.36,9.99,14.55,16.93,18.56,6.94,4.01,14.51,6.02,22.7,6.02,10.7,0,19.48-2.46,26.34-7.4,6.86-4.93,11.79-11.83,14.8-20.69h11.54c-2.18,7.19-5.56,13.76-10.16,19.69-4.6,5.94-10.37,10.5-17.31,13.67-6.94,3.17-15.34,4.77-25.21,4.77Z"/>
    <path d="M1789.4,759.95c-11.37,0-21.66-2.76-30.85-8.28-9.2-5.52-16.26-13.17-21.2-22.95-4.93-9.78-7.4-21.36-7.4-34.74s2.59-25.33,7.78-35.37c5.18-10.03,12.25-17.72,21.2-23.08,8.94-5.35,19.1-8.03,30.48-8.03,14.21,0,25.96,3.68,35.24,11.04,9.28,7.36,15.26,16.72,17.93,28.09h-11.79c-2.01-8.86-6.73-15.93-14.17-21.2-7.44-5.27-16.6-7.9-27.47-7.9-8.19,0-15.93,2.09-23.2,6.27-7.27,4.18-13.17,10.41-17.68,18.69-4.52,8.28-6.77,18.69-6.77,31.23,0,10.03,1.38,18.52,4.14,25.46,2.76,6.94,6.4,12.63,10.91,17.06,4.52,4.43,9.61,7.82,15.3,10.16,5.68,2.34,11.45,3.51,17.31,3.51,6.86,0,13.21-1.17,19.06-3.51,5.85-2.34,10.74-5.68,14.67-10.03,3.93-4.35,6.56-9.53,7.9-15.55h11.79c-2.34,11.21-8.15,20.53-17.43,27.97-9.28,7.44-21.2,11.16-35.74,11.16Z"/>
    <path d="M1872.43,756.94v-180.6h11.04v80.52c4.52-9.36,10.79-16.59,18.81-21.7,8.03-5.1,16.72-7.65,26.09-7.65s17.31,1.84,24.33,5.52c7.02,3.68,12.46,9.37,16.3,17.06,3.84,7.69,5.77,17.56,5.77,29.6v77.26h-11.04v-75.75c0-14.71-3.18-25.67-9.53-32.86-6.36-7.19-15.47-10.79-27.34-10.79-8.19,0-15.51,2.09-21.95,6.27-6.44,4.18-11.62,10.08-15.55,17.68-3.93,7.61-5.89,16.85-5.89,27.72v67.73h-11.04Z"/>
    <path d="M2007.62,756.94v-126.42h10.03l1,25.58c4.35-9.53,10.41-16.68,18.19-21.45,7.78-4.77,16.43-7.15,25.96-7.15s17.35,1.84,24.46,5.52c7.11,3.68,12.62,9.28,16.56,16.81,3.93,7.53,5.89,17.39,5.89,29.6v77.51h-11.04v-76c0-14.71-3.22-25.62-9.66-32.73-6.44-7.1-15.68-10.66-27.72-10.66-8.36,0-15.64,2.01-21.82,6.02-6.19,4.01-11.21,9.78-15.05,17.31-3.85,7.53-5.77,16.81-5.77,27.84v68.23h-11.04Z"/>
    <path d="M2197.25,759.95c-11.54,0-21.82-2.63-30.85-7.9-9.03-5.27-16.18-12.87-21.45-22.83-5.27-9.95-7.9-21.7-7.9-35.24s2.67-25.59,8.03-35.62c5.35-10.03,12.62-17.68,21.82-22.95,9.19-5.27,19.57-7.9,31.1-7.9s22.07,2.63,31.1,7.9c9.03,5.27,16.22,12.88,21.57,22.82,5.35,9.95,8.03,21.78,8.03,35.49s-2.76,25.55-8.28,35.49c-5.52,9.95-12.83,17.56-21.95,22.83-9.12,5.27-19.53,7.9-31.23,7.9ZM2197.25,749.91c8.69,0,16.76-2.09,24.21-6.27,7.44-4.18,13.58-10.45,18.44-18.81,4.85-8.36,7.27-18.73,7.27-31.1s-2.38-22.74-7.15-31.1c-4.77-8.36-10.83-14.63-18.19-18.81-7.36-4.18-15.3-6.27-23.83-6.27s-16.77,2.09-24.21,6.27c-7.44,4.18-13.51,10.45-18.19,18.81-4.68,8.36-7.02,18.73-7.02,31.1s2.3,22.74,6.9,31.1c4.6,8.36,10.57,14.63,17.93,18.81,7.36,4.18,15.3,6.27,23.83,6.27Z"/>
    <path d="M2288.3,756.94v-180.6h11.04v180.6h-11.04Z"/>
    <path d="M2389.64,759.95c-11.54,0-21.82-2.63-30.85-7.9-9.03-5.27-16.18-12.87-21.45-22.83-5.27-9.95-7.9-21.7-7.9-35.24s2.67-25.59,8.03-35.62c5.35-10.03,12.62-17.68,21.82-22.95,9.19-5.27,19.57-7.9,31.1-7.9s22.07,2.63,31.1,7.9c9.03,5.27,16.22,12.88,21.57,22.82,5.35,9.95,8.03,21.78,8.03,35.49s-2.76,25.55-8.28,35.49c-5.52,9.95-12.83,17.56-21.95,22.83-9.12,5.27-19.53,7.9-31.23,7.9ZM2389.64,749.91c8.69,0,16.76-2.09,24.21-6.27,7.44-4.18,13.58-10.45,18.44-18.81,4.85-8.36,7.27-18.73,7.27-31.1s-2.38-22.74-7.15-31.1c-4.77-8.36-10.83-14.63-18.19-18.81-7.36-4.18-15.3-6.27-23.83-6.27s-16.77,2.09-24.21,6.27c-7.44,4.18-13.51,10.45-18.19,18.81-4.68,8.36-7.02,18.73-7.02,31.1s2.3,22.74,6.9,31.1c4.6,8.36,10.57,14.63,17.93,18.81,7.36,4.18,15.3,6.27,23.83,6.27Z"/>
    <path d="M2522.83,815.13c-10.87,0-20.57-1.59-29.1-4.77-8.53-3.18-15.26-7.86-20.19-14.05-4.93-6.19-7.4-13.54-7.4-22.07,0-4.35.75-8.62,2.26-12.79,1.51-4.18,4.14-8.28,7.9-12.29s8.9-8.11,15.43-12.29l10.03,4.77c-9.7,4.85-16.14,9.99-19.31,15.43-3.18,5.43-4.77,10.74-4.77,15.93,0,6.69,1.96,12.46,5.89,17.31,3.93,4.85,9.32,8.53,16.18,11.04,6.86,2.51,14.55,3.76,23.08,3.76,9.36,0,17.35-1.25,23.95-3.76,6.6-2.51,11.66-6.06,15.18-10.66,3.51-4.6,5.27-10.08,5.27-16.43,0-8.36-3.01-15.01-9.03-19.94-6.02-4.93-16.64-7.73-31.86-8.4-9.37-.67-17.23-1.51-23.58-2.51-6.36-1-11.62-2.21-15.8-3.64-4.18-1.42-7.78-2.97-10.79-4.64-3.01-1.67-5.86-3.42-8.53-5.27v-4.77l22.58-20.07,10.79,3.76-23.08,20.07-.25-5.52c2.17,1.34,4.35,2.63,6.52,3.89,2.17,1.25,4.85,2.38,8.03,3.39,3.17,1,7.65,1.88,13.42,2.63,5.77.75,13.42,1.47,22.95,2.13,12.37.84,22.2,2.93,29.47,6.27,7.27,3.35,12.54,7.69,15.8,13.04,3.26,5.35,4.89,11.62,4.89,18.81s-1.88,13.96-5.64,20.32c-3.76,6.35-9.78,11.5-18.06,15.43-8.28,3.93-19.02,5.89-32.23,5.89ZM2522.83,717.31c-10.87,0-19.94-2.01-27.22-6.02-7.27-4.01-12.67-9.36-16.18-16.05-3.51-6.69-5.27-14.21-5.27-22.57s1.8-16.43,5.39-23.2c3.59-6.77,9.03-12.12,16.3-16.05,7.27-3.93,16.26-5.89,26.96-5.89s20.4,1.97,27.59,5.89c7.19,3.93,12.54,9.28,16.05,16.05,3.51,6.77,5.27,14.51,5.27,23.2s-1.76,15.89-5.27,22.57c-3.51,6.69-8.87,12.04-16.05,16.05-7.19,4.01-16.39,6.02-27.59,6.02ZM2522.83,707.52c12.37,0,21.74-3.09,28.09-9.28,6.35-6.18,9.53-14.8,9.53-25.84,0-11.87-3.26-20.69-9.78-26.46-6.52-5.77-15.8-8.65-27.84-8.65-11.37,0-20.44,2.88-27.22,8.65-6.77,5.77-10.16,14.59-10.16,26.46s3.34,20.28,10.03,26.21c6.69,5.94,15.8,8.9,27.34,8.9ZM2545.41,640.8l-4.52-10.28h48.41v9.53l-43.9.75Z"/>
    <path d="M2624.67,596.91c-2.34,0-4.39-.88-6.15-2.63-1.76-1.76-2.63-3.8-2.63-6.15,0-2.67.88-4.77,2.63-6.27,1.76-1.51,3.8-2.26,6.15-2.26s4.39.75,6.14,2.26c1.76,1.51,2.63,3.6,2.63,6.27,0,2.34-.88,4.39-2.63,6.15s-3.81,2.63-6.14,2.63ZM2619.15,756.94v-126.42h11.04v126.42h-11.04Z"/>
    <path d="M2718.98,759.95c-11.71,0-21.87-2.8-30.48-8.4-8.62-5.6-15.22-13.42-19.82-23.45-4.6-10.03-6.9-21.65-6.9-34.87,0-13.88,2.42-25.71,7.27-35.49,4.85-9.78,11.7-17.26,20.57-22.45,8.86-5.18,18.9-7.78,30.1-7.78,12.2,0,22.41,2.76,30.6,8.28,8.19,5.52,14.34,12.67,18.44,21.45,4.1,8.78,6.15,18.52,6.15,29.22v4.39c0,1.42-.09,3.14-.25,5.14h-105.1v-9.78h94.82c-.34-15.89-4.68-27.97-13.04-36.25-8.36-8.28-19.06-12.42-32.11-12.42-8.03,0-15.55,1.84-22.57,5.52-7.02,3.68-12.75,9.32-17.18,16.93-4.43,7.61-6.65,17.35-6.65,29.22v4.77c0,12.54,2.17,22.99,6.52,31.35,4.35,8.36,9.99,14.55,16.93,18.56,6.94,4.01,14.51,6.02,22.7,6.02,10.7,0,19.48-2.46,26.34-7.4,6.86-4.93,11.79-11.83,14.8-20.69h11.54c-2.18,7.19-5.56,13.76-10.16,19.69-4.6,5.94-10.37,10.5-17.31,13.67-6.94,3.17-15.34,4.77-25.21,4.77Z"/>
    <path d="M2803.51,812.12v-181.6h10.03l1.25,31.6c2.34-6.18,5.93-11.95,10.79-17.31,4.85-5.35,10.57-9.57,17.18-12.67,6.6-3.09,14.25-4.64,22.95-4.64,12.37,0,22.99,2.88,31.86,8.65,8.86,5.77,15.72,13.59,20.57,23.45,4.85,9.87,7.27,21.24,7.27,34.11s-2.43,24.29-7.27,34.24c-4.85,9.95-11.75,17.77-20.69,23.45-8.95,5.68-19.61,8.53-31.98,8.53s-22.7-3.14-31.48-9.41c-8.78-6.27-15.26-14.84-19.44-25.71v87.29h-11.04ZM2864.97,749.66c9.53,0,17.93-2.26,25.21-6.77,7.27-4.52,13-10.99,17.18-19.44,4.18-8.44,6.27-18.27,6.27-29.47s-2.09-21.49-6.27-29.85c-4.18-8.36-9.91-14.84-17.18-19.44-7.27-4.6-15.68-6.9-25.21-6.9s-17.98,2.38-25.33,7.15c-7.36,4.77-13.09,11.33-17.18,19.69-4.1,8.36-6.15,18.15-6.15,29.35s2.05,20.53,6.15,28.97c4.09,8.45,9.82,15.01,17.18,19.69,7.36,4.68,15.8,7.02,25.33,7.02Z"/>
    <path d="M2993.14,759.95c-9.37,0-17.31-1.84-23.83-5.52-6.52-3.68-11.5-8.49-14.92-14.42-3.43-5.93-5.14-12.33-5.14-19.19,0-9.19,2.13-16.72,6.4-22.58,4.26-5.85,10.2-10.24,17.81-13.17,7.61-2.92,16.43-4.39,26.46-4.39h38.13c0-8.86-1.3-16.55-3.89-23.08-2.59-6.52-6.57-11.5-11.91-14.92-5.35-3.42-12.38-5.14-21.07-5.14-10.03,0-18.44,2.43-25.21,7.27-6.77,4.85-11,12.21-12.67,22.07h-11.79c1.34-8.86,4.35-16.18,9.03-21.95,4.68-5.77,10.62-10.12,17.81-13.04,7.19-2.92,14.8-4.39,22.83-4.39,11.54,0,20.86,2.26,27.97,6.77,7.11,4.52,12.25,10.7,15.43,18.56,3.17,7.86,4.77,16.81,4.77,26.84v77.26h-10.28l-.75-25.08c-1.51,2.68-3.43,5.61-5.77,8.78-2.34,3.18-5.27,6.27-8.78,9.28-3.51,3.01-7.74,5.44-12.67,7.27-4.93,1.84-10.91,2.76-17.93,2.76ZM2994.64,749.66c7.02,0,13.25-1.38,18.69-4.14,5.43-2.76,9.99-6.44,13.67-11.04,3.68-4.6,6.44-9.53,8.28-14.8,1.84-5.27,2.76-10.58,2.76-15.93v-13.54h-37.12c-10.03,0-17.93,1.34-23.7,4.01-5.77,2.68-9.87,6.27-12.29,10.79-2.43,4.52-3.64,9.62-3.64,15.3,0,5.35,1.29,10.25,3.89,14.67,2.59,4.43,6.44,7.99,11.54,10.66,5.1,2.68,11.08,4.01,17.93,4.01Z"/>
    <path d="M3082.18,756.94v-126.42h10.03l1,25.33c3.01-6.52,6.85-11.91,11.54-16.18,4.68-4.26,10.12-7.36,16.3-9.28,6.18-1.92,13.38-2.88,21.57-2.88v11.29h-4.52c-5.02,0-10.12.71-15.3,2.13-5.18,1.42-9.99,3.89-14.42,7.4-4.43,3.51-8.07,8.4-10.91,14.67-2.84,6.27-4.26,14.34-4.26,24.21v69.73h-11.04Z"/>
    <path d="M3211.11,756.94c-6.52,0-12.13-1-16.81-3.01-4.68-2.01-8.24-5.48-10.66-10.41-2.43-4.93-3.64-11.58-3.64-19.94v-83.28h-21.82v-9.78h21.82l2.01-27.34h9.28v27.34h39.63v9.78h-39.63v83.28c0,8.7,1.76,14.8,5.27,18.31,3.51,3.51,9.45,5.27,17.81,5.27h14.05v9.78h-17.31Z"/>
    <path d="M3257.77,756.94v-126.42h10.03l1,25.58c4.35-9.53,10.41-16.68,18.19-21.45,7.78-4.77,16.43-7.15,25.96-7.15s17.35,1.84,24.46,5.52c7.11,3.68,12.62,9.28,16.56,16.81,3.93,7.53,5.89,17.39,5.89,29.6v77.51h-11.04v-76c0-14.71-3.22-25.62-9.66-32.73-6.44-7.1-15.68-10.66-27.72-10.66-8.36,0-15.64,2.01-21.82,6.02-6.19,4.01-11.21,9.78-15.05,17.31-3.85,7.53-5.77,16.81-5.77,27.84v68.23h-11.04Z"/>
    <path d="M3444.39,759.95c-11.71,0-21.87-2.8-30.48-8.4-8.62-5.6-15.22-13.42-19.82-23.45-4.6-10.03-6.9-21.65-6.9-34.87,0-13.88,2.42-25.71,7.27-35.49,4.85-9.78,11.7-17.26,20.57-22.45,8.86-5.18,18.9-7.78,30.1-7.78,12.2,0,22.41,2.76,30.6,8.28,8.19,5.52,14.34,12.67,18.44,21.45,4.1,8.78,6.15,18.52,6.15,29.22v4.39c0,1.42-.09,3.14-.25,5.14h-105.1v-9.78h94.82c-.34-15.89-4.68-27.97-13.04-36.25-8.36-8.28-19.06-12.42-32.11-12.42-8.03,0-15.55,1.84-22.57,5.52-7.02,3.68-12.75,9.32-17.18,16.93-4.43,7.61-6.65,17.35-6.65,29.22v4.77c0,12.54,2.17,22.99,6.52,31.35,4.35,8.36,9.99,14.55,16.93,18.56,6.94,4.01,14.51,6.02,22.7,6.02,10.7,0,19.48-2.46,26.34-7.4,6.86-4.93,11.79-11.83,14.8-20.69h11.54c-2.18,7.19-5.56,13.76-10.16,19.69-4.6,5.94-10.37,10.5-17.31,13.67-6.94,3.17-15.34,4.77-25.21,4.77Z"/>
    <path d="M3528.92,756.94v-126.42h10.03l1,25.33c3.01-6.52,6.85-11.91,11.54-16.18,4.68-4.26,10.12-7.36,16.3-9.28,6.18-1.92,13.38-2.88,21.57-2.88v11.29h-4.52c-5.02,0-10.12.71-15.3,2.13-5.18,1.42-9.99,3.89-14.42,7.4-4.43,3.51-8.07,8.4-10.91,14.67-2.84,6.27-4.26,14.34-4.26,24.21v69.73h-11.04Z"/>
  </g>
  <path d="M4140.4,735.88c-3.8-2.84-12.81-4.47-12.36-9.86.32-3.87,9.84-9.65,12.98-13.1,26.28-28.85,18.94-63.8-9.1-87.7-10.51-8.96-43.23-23.86-44.48-36.78-.67-6.88,7.71-11.08,1.87-20.09-4.06-6.27-13.94-3.66-17.31-5.59-.81-.46-8.36-13.6-9.65-15.86-28.79-50.5-49.37-134.62-52.16-192.64-.65-13.63-1.87-39.59,7.91-49.8,10.56-11.01,66.02-17.89,47.82-40.02-9.36-11.39-49.3-14.95-71.15-17.38,35.87-19.07,60.3-56.82,60.3-100.28,0-62.69-50.82-113.51-113.51-113.51-.34,0-.67.01-1.01.01-.34,0-.67-.01-1.01-.01-62.69,0-113.51,50.82-113.51,113.51,0,43.46,24.43,81.21,60.3,100.28-21.85,2.42-61.78,5.99-71.15,17.38-18.2,22.14,37.26,29.01,47.82,40.02,9.79,10.2,8.57,36.17,7.91,49.8-2.78,58.01-23.37,142.14-52.16,192.64-1.29,2.26-8.84,15.4-9.65,15.86-3.37,1.93-13.25-.68-17.31,5.59-5.84,9.01,2.54,13.21,1.87,20.09-1.25,12.92-33.98,27.82-44.48,36.78-28.04,23.9-35.38,58.86-9.1,87.7,3.14,3.45,12.66,9.23,12.98,13.1.45,5.39-8.56,7.01-12.36,9.86-14.35,10.72-18.65,38.62.61,46.52,66.34,1.14,132.79.73,199.23.49,66.44.24,132.89.65,199.23-.49,19.26-7.9,14.96-35.79.61-46.52Z"/>
</svg>