<?xml version="1.0" encoding="UTF-8"?>
<svg fill="#ffffff" id="Ebene_1" data-name="Ebene 1" xmlns="http://www.w3.org/2000/svg" viewBox="0 0 3957.33 496">
  <g>
    <path d="M511.63,453.38L372.13,103.38h81l80,222.5c5.33,14.67,9.5,29.34,12.5,44,1.66-7.33,3.5-14.75,5.5-22.25s4.33-14.75,7-21.75l80-222.5h79.5l-138.5,350h-67.5Z"/>
    <path d="M809.13,459.88c-23.67,0-45.25-6.09-64.75-18.25s-35-28.5-46.5-49-17.25-43.25-17.25-68.25c0-18.66,3.33-36.25,10-52.75,6.66-16.5,15.83-31,27.5-43.5,11.66-12.5,25.25-22.33,40.75-29.5,15.5-7.16,32.25-10.75,50.25-10.75,22.66,0,40.33,4.25,53,12.75,12.66,8.5,22.5,19.75,29.5,33.75v-41h67v260h-65.5v-42.5c-7,14.67-16.92,26.5-29.75,35.5-12.84,9-30.92,13.5-54.25,13.5ZM820.13,398.88c15,0,27.91-3.41,38.75-10.25,10.83-6.83,19.25-15.91,25.25-27.25,6-11.33,9-23.66,9-37s-3-26.16-9-37.5c-6-11.33-14.42-20.5-25.25-27.5-10.84-7-23.75-10.5-38.75-10.5s-26.92,3.42-37.75,10.25c-10.84,6.84-19.25,15.92-25.25,27.25-6,11.34-9,23.84-9,37.5s3,25.25,9,36.75,14.41,20.75,25.25,27.75c10.83,7,23.41,10.5,37.75,10.5Z"/>
    <path d="M998.63,453.38V88.38h67.5v365h-67.5Z"/>
    <path d="M1230.62,459.88c-26.67,0-50.17-6.17-70.5-18.5-20.34-12.33-36.09-28.75-47.25-49.25-11.17-20.5-16.75-43.25-16.75-68.25s5.83-47.91,17.5-68.75c11.66-20.83,27.58-37.41,47.75-49.75,20.16-12.33,43.25-18.5,69.25-18.5s48.91,6.17,68.75,18.5c19.83,12.34,35.33,28.92,46.5,49.75,11.16,20.84,16.75,43.75,16.75,68.75,0,3.67-.17,7.5-.5,11.5-.34,4-.84,8.17-1.5,12.5h-194.5c3.66,15.34,11.08,27.84,22.25,37.5,11.16,9.67,25.25,14.5,42.25,14.5,14.66,0,27.41-3.33,38.25-10,10.83-6.66,19.25-15,25.25-25l52.5,39.5c-10.34,16.34-25.84,29.67-46.5,40-20.67,10.33-43.84,15.5-69.5,15.5ZM1229.62,244.88c-16,0-29.67,4.84-41,14.5-11.34,9.67-18.84,22.34-22.5,38h128.5c-3.67-14.33-11.25-26.66-22.75-37-11.5-10.33-25.59-15.5-42.25-15.5Z"/>
    <path d="M1392.12,453.38V193.38h66.5v38c13.66-29.33,40.16-44,79.5-44,18.66,0,35.5,4.34,50.5,13,15,8.67,26.83,21,35.5,37,8.66,16,13,35,13,57v159h-67.5v-142.5c0-22.66-5.17-39.08-15.5-49.25-10.34-10.16-23.84-15.25-40.5-15.25-14.34,0-26.92,5.09-37.75,15.25-10.84,10.17-16.25,26.59-16.25,49.25v142.5h-67.5Z"/>
    <path d="M1768.62,453.38c-25.67,0-45.34-6.33-59-19-13.67-12.66-20.5-33.16-20.5-61.5v-122h-36.5v-57.5h36.5v-52.5l67.5-7v59.5h55v57.5h-55v118.5c0,16,7,24,21,24h28v60h-37Z"/>
    <path d="M1867.61,171.88c-11.34,0-20.92-3.91-28.75-11.75-7.84-7.83-11.75-17.25-11.75-28.25s3.91-19.91,11.75-27.75,17.41-11.75,28.75-11.75,21.33,3.92,29,11.75c7.66,7.84,11.5,17.09,11.5,27.75,0,11.34-3.84,20.84-11.5,28.5s-17.34,11.5-29,11.5ZM1834.11,453.38V193.38h67.5v260h-67.5Z"/>
    <path d="M1941.61,453.38V193.38h66.5v38c13.66-29.33,40.16-44,79.5-44,18.66,0,35.5,4.34,50.5,13,15,8.67,26.83,21,35.5,37,8.66,16,13,35,13,57v159h-67.5v-142.5c0-22.66-5.17-39.08-15.5-49.25-10.34-10.16-23.84-15.25-40.5-15.25-14.34,0-26.92,5.09-37.75,15.25-10.84,10.17-16.25,26.59-16.25,49.25v142.5h-67.5Z"/>
    <path d="M2433.6,458.88c-26,0-48.59-4.42-67.75-13.25-19.17-8.83-34-21.33-44.5-37.5-10.5-16.16-15.75-35.08-15.75-56.75,0-16.66,3.5-32.25,10.5-46.75s17.66-27.33,32-38.5c14.33-11.16,32-20.08,53-26.75l28-9,32,46-24.5,8c-19.67,6-34.25,14.42-43.75,25.25-9.5,10.84-14.25,23.09-14.25,36.75,0,9.34,2.33,17.92,7,25.75,4.66,7.84,11.5,14.09,20.5,18.75,9,4.67,19.5,7,31.5,7,18,0,34-4,48-12s27.5-20.33,40.5-37c5.66-7.66,11.16-16.25,16.5-25.75,5.33-9.5,10.66-20.25,16-32.25l9-19.5h76l-16,32.5c-8,17.34-16.17,33.34-24.5,48-8.34,14.67-17.34,27.67-27,39-19,23.34-40.09,40.5-63.25,51.5-23.17,11-49.59,16.5-79.25,16.5ZM2583.1,453.38l-190-187.5c-15.34-15.33-26.17-29.25-32.5-41.75-6.34-12.5-9.5-25.58-9.5-39.25,0-16.33,4.25-31.08,12.75-44.25,8.5-13.16,20.58-23.66,36.25-31.5,15.66-7.83,35-11.75,58-11.75s41.66,4.09,57,12.25c15.33,8.17,26.83,19.09,34.5,32.75,7.66,13.67,11.5,28.5,11.5,44.5h-71.5c.33-10.66-2.67-18.75-9-24.25-6.34-5.5-14-8.25-23-8.25-10.34,0-18.75,2.75-25.25,8.25s-9.75,12.75-9.75,21.75c0,7.34,2.41,15.17,7.25,23.5,4.83,8.34,12.08,17.5,21.75,27.5l219.5,218h-88Z"/>
    <path d="M2787.09,453.38V103.38h205v63h-135v78.5h132.5v61h-132.5v84.5h136v63h-206Z"/>
    <path d="M3032.59,453.38V193.38h66.5v38c13.66-29.33,40.16-44,79.5-44,18.66,0,35.5,4.34,50.5,13,15,8.67,26.83,21,35.5,37,8.66,16,13,35,13,57v159h-67.5v-142.5c0-22.66-5.17-39.08-15.5-49.25-10.34-10.16-23.84-15.25-40.5-15.25-14.34,0-26.92,5.09-37.75,15.25-10.84,10.17-16.25,26.59-16.25,49.25v142.5h-67.5Z"/>
    <path d="M3315.08,453.38V88.38h67.5v210l97.5-105h96l-122.5,121,123,139h-89.5l-104.5-123.5v123.5h-67.5Z"/>
    <path d="M3686.09,459.88c-26.67,0-50.17-6.17-70.5-18.5-20.34-12.33-36.09-28.75-47.25-49.25-11.17-20.5-16.75-43.25-16.75-68.25s5.83-47.91,17.5-68.75c11.66-20.83,27.58-37.41,47.75-49.75,20.16-12.33,43.25-18.5,69.25-18.5s48.91,6.17,68.75,18.5c19.83,12.34,35.33,28.92,46.5,49.75,11.16,20.84,16.75,43.75,16.75,68.75,0,3.67-.17,7.5-.5,11.5-.34,4-.84,8.17-1.5,12.5h-194.5c3.66,15.34,11.08,27.84,22.25,37.5,11.16,9.67,25.25,14.5,42.25,14.5,14.66,0,27.41-3.33,38.25-10,10.83-6.66,19.25-15,25.25-25l52.5,39.5c-10.34,16.34-25.84,29.67-46.5,40-20.67,10.33-43.84,15.5-69.5,15.5ZM3685.09,244.88c-16,0-29.67,4.84-41,14.5-11.34,9.67-18.84,22.34-22.5,38h128.5c-3.67-14.33-11.25-26.66-22.75-37-11.5-10.33-25.59-15.5-42.25-15.5Z"/>
    <path d="M3847.59,453.38V88.38h67.5v365h-67.5Z"/>
  </g>
  <path d="M278.96,440.94c-2.26-1.69-7.62-2.65-7.35-5.86.19-2.3,5.85-5.73,7.72-7.78,15.62-17.15,11.26-37.92-5.41-52.13-6.25-5.32-25.7-14.18-26.44-21.86-.4-4.09,4.58-6.58,1.11-11.94-2.42-3.73-8.29-2.18-10.29-3.32-.48-.27-4.97-8.08-5.74-9.43-17.11-30.02-29.35-80.02-31-114.5-.39-8.1-1.11-23.53,4.7-29.6,6.28-6.55,39.24-10.63,28.42-23.79-5.56-6.77-29.3-8.89-42.29-10.33,21.32-11.34,35.84-33.77,35.84-59.61,0-37.26-30.21-67.47-67.47-67.47-.2,0-.4,0-.6,0-.2,0-.4,0-.6,0-37.26,0-67.47,30.21-67.47,67.47,0,25.83,14.52,48.27,35.84,59.61-12.99,1.44-36.72,3.56-42.29,10.33-10.82,13.16,22.14,17.24,28.42,23.79,5.82,6.06,5.09,21.5,4.7,29.6-1.65,34.48-13.89,84.48-31,114.5-.77,1.35-5.26,9.16-5.74,9.43-2.01,1.15-7.88-.4-10.29,3.32-3.47,5.36,1.51,7.85,1.11,11.94-.74,7.68-20.19,16.54-26.44,21.86-16.67,14.21-21.03,34.98-5.41,52.13,1.87,2.05,7.52,5.48,7.72,7.78.27,3.2-5.09,4.17-7.35,5.86-8.53,6.37-11.08,22.95.36,27.65,39.43.68,78.92.43,118.42.29,39.49.14,78.99.39,118.42-.29,11.45-4.7,8.89-21.27.36-27.65Z"/>
</svg>